<svg width="88" height="88" viewBox="0 0 88 88" fill="none" xmlns="http://www.w3.org/2000/svg">
<g clip-path="url(#clip0_2112_174)">
<path d="M75.038 12.7882C66.8019 4.54642 55.8503 0.00502851 44.1822 0C20.1381 0 0.571157 19.5607 0.561531 43.6037C0.55873 51.2891 2.56683 58.7912 6.38368 65.4041L0.195312 88L23.3191 81.9366C29.6902 85.4112 36.8635 87.2421 44.1634 87.245H44.1819H44.1822C68.2223 87.245 87.7922 67.6808 87.8024 43.639C87.8065 31.9867 83.273 21.0306 75.038 12.7882ZM44.1822 79.8802H44.168C37.6613 79.8767 31.2805 78.1298 25.715 74.8273L24.3905 74.0422L10.6683 77.6399L14.3319 64.2658L13.469 62.8947C9.83948 57.1237 7.92341 50.4545 7.92614 43.6065C7.93411 23.6228 24.1974 7.36511 44.1959 7.36511C53.8802 7.36913 62.9823 11.144 69.8279 17.9943C76.6731 24.8446 80.44 33.951 80.4372 43.6359C80.4287 63.6203 64.1648 79.8802 44.1822 79.8802Z" fill="#E0E0E0"/>
<path d="M2.19922 85.492L8.10491 63.9283C4.46147 57.6174 2.54547 50.4575 2.54777 43.1245C2.55732 20.1803 21.2307 1.51367 44.1744 1.51367C55.3101 1.5187 65.7616 5.85241 73.6197 13.7179C81.4796 21.5834 85.8054 32.0383 85.8009 43.1571C85.7913 66.1019 67.1169 84.7702 44.176 84.7702C44.1772 84.7702 44.1744 84.7702 44.176 84.7702H44.1575C37.1911 84.768 30.3459 83.0192 24.2663 79.7058L2.19922 85.492Z" fill="url(#paint0_linear_2112_174)"/>
<path fill-rule="evenodd" clip-rule="evenodd" d="M33.4029 25.0919C32.5959 23.2977 31.7463 23.2618 30.9785 23.2304C30.3505 23.2034 29.6316 23.2051 28.9138 23.2051C28.1954 23.2051 27.0281 23.4751 26.0409 24.5532C25.0532 25.6313 22.2695 28.2376 22.2695 33.5382C22.2695 38.8395 26.1307 43.9618 26.6689 44.6812C27.2077 45.3996 34.1224 56.6251 45.0734 60.9436C54.1747 64.5326 56.0268 63.8187 58.0022 63.6391C59.9777 63.4595 64.3765 61.0334 65.2745 58.5174C66.1724 56.002 66.1724 53.8459 65.903 53.3952C65.6336 52.9462 64.9153 52.6768 63.8377 52.138C62.7602 51.5993 57.4635 48.9924 56.4757 48.6332C55.488 48.2741 54.7696 48.0945 54.0513 49.1732C53.3329 50.2507 51.2693 52.6768 50.6407 53.3952C50.0122 54.1152 49.3836 54.205 48.3061 53.6662C47.2285 53.1258 43.7585 51.9893 39.642 48.3189C36.4391 45.4634 34.2767 41.9367 33.6482 40.8581C33.0196 39.7806 33.5808 39.1969 34.1213 38.6598C34.605 38.1771 35.1988 37.4021 35.7376 36.7729C36.2752 36.1438 36.4548 35.6948 36.814 34.9765C37.1732 34.257 36.9936 33.6279 36.7242 33.0891C36.4548 32.5504 34.3609 27.2223 33.4029 25.0919Z" fill="white"/>
<path d="M74.6828 12.6493C66.5412 4.50208 55.7153 0.0129128 44.1812 0.0078125C20.4131 0.0078125 1.07075 19.344 1.0612 43.1109C1.0584 50.7082 3.04344 58.1241 6.81647 64.6612L0.699219 86.9976L23.5576 81.0038C29.8556 84.4384 36.9466 86.2483 44.1627 86.2511H44.181H44.1812C67.9454 86.2511 87.2905 66.9116 87.3006 43.1457C87.3046 31.6273 82.8233 20.797 74.6828 12.6493ZM44.1812 78.9711H44.1672C37.7351 78.9677 31.4276 77.2409 25.9259 73.9763L24.6166 73.2001L11.052 76.7565L14.6735 63.5359L13.8205 62.1806C10.2326 56.4759 8.33852 49.8832 8.34133 43.1138C8.34916 23.3595 24.4258 7.28851 44.1947 7.28851C53.768 7.29247 62.7654 11.024 69.5326 17.7956C76.2991 24.5673 80.0228 33.5692 80.02 43.1431C80.0115 62.8978 63.9343 78.9711 44.1812 78.9711Z" fill="white"/>
</g>
<defs>
<linearGradient id="paint0_linear_2112_174" x1="44.0001" y1="85.492" x2="44.0001" y2="1.51381" gradientUnits="userSpaceOnUse">
<stop stop-color="#20B038"/>
<stop offset="1" stop-color="#60D66A"/>
</linearGradient>
<clipPath id="clip0_2112_174">
<rect width="88" height="88" fill="white"/>
</clipPath>
</defs>
</svg>
